<?xml version="1.0" encoding="UTF-8"?>
<svg id="Capa_1" xmlns="http://www.w3.org/2000/svg" version="1.1" viewBox="0 0 200 96">
  <!-- Generator: Adobe Illustrator 29.1.0, SVG Export Plug-In . SVG Version: 2.1.0 Build 142)  -->
  <defs>
    <style>
      .st0 {
        fill: #ed002f;
      }
    </style>
  </defs>
  <g>
    <path class="st0" d="M140.1,78c0,4.8-2.9,5.7-5.1,5.7s-5.1-1-5.1-5.7v-13.6h-7v14.4c0,7,4.6,11.4,12.1,11.4s12.1-4.4,12.1-11.4v-14.4h-7s0,13.6,0,13.6Z"/>
    <path class="st0" d="M168.6,64.1h-.7c-.8-.4-2.4-.4-2.5-.4-9.3,0-13.8,4.2-13.8,12.7v13h7v-9.6c0-6.1.2-9.4,6-9.6.6,0,2.1,0,3,.2l1.1.4v-6.9.2Z"/>
    <path class="st0" d="M76.8,63.7c-9.3,0-13.8,4.2-13.8,12.7v13h7v-9.6c0-6.1.2-9.4,6-9.6.6,0,2.1,0,3,.2l1.1.4v-6.9h-.7c-.8-.4-2.4-.4-2.5-.4v.2Z"/>
    <rect class="st0" x="84.4" y="64.1" width="7" height="25.4"/>
    <path class="st0" d="M29.9,64.1h-7.1v.7s-1.1,8.1-6.8,15.7c-5.7-7.6-6.7-15.6-6.8-15.7v-.7H1.9v1c0,.6,1.3,14.8,13.4,24.8l.5.5.5-.5c12.1-10.1,13.3-24.2,13.4-24.8v-1h.1Z"/>
    <path class="st0" d="M110.5,73.8l-4.2-.7c-1.9-.2-2.7-1.1-2.7-1.8s1.7-1.8,3.9-1.5h0c1.9.1,3.6.5,4.6,1.2l.5.2,5.2-4.3-.8-.6c-2.1-1.5-5-2.4-8.9-2.6h-.1c-5.6-.4-11.4,2.1-11.8,7.6-.2,3,1.1,6.9,8.3,8.1l4.2.7c1.8.2,3,1.1,2.9,2,0,1.4-3.1,1.8-4.9,1.8h0c-2.3-.1-4.2-.7-5.6-1.8l-.5-.4-5.4,4.4.8.6c2.9,2.4,6.1,3,10.1,3.3h1.5c2.6,0,5-.5,6.9-1.3,2.9-1.3,4.4-3.6,4.6-6.4.4-4.4-2.9-7.5-8.4-8.4h-.4Z"/>
    <path class="st0" d="M191.3,80.3v.2c-.8,1.8-3.5,3.1-6.4,3.1-4.4-.2-5.7-3.1-6.2-4.9h19.4v-.7c0-9.4-4.9-14.8-13.4-14.9h0c-9.3,0-13.4,6.7-13.4,13.3s5.6,13.4,13.8,13.4,10.4-4,11.5-6l-5.2-3.7h0ZM184.9,68.8c3.1,0,5.2,1.8,5.7,4.8h-11.5c.4-2.6,3.1-4.8,5.8-4.8Z"/>
    <path class="st0" d="M52.3,80.3v.2c-.8,1.8-3.5,3.1-6.4,3.1-4.4-.2-5.7-3.1-6.2-4.9h19.4v-.7c0-9.4-4.9-14.8-13.4-14.9h0c-9.3,0-13.4,6.7-13.4,13.3s5.6,13.4,13.8,13.4,10.4-4,11.5-6c0,0-5.2-3.7-5.2-3.7ZM45.8,68.8c3.1,0,5.2,1.8,5.7,4.8h-11.5c.4-2.6,3.1-4.8,5.8-4.8Z"/>
  </g>
  <g>
    <path class="st0" d="M123.4,24.8c0-.8-.1-1.5-.4-2.3-.2-.7-.6-1.4-1.1-2.1-.4-.6-1-1.2-1.4-1.7-1.2-1.1-2.4-1.4-3.9-1.8-.7-.1-1.4-.2-2.1-.5-.7-.2-1.4-.5-2-.8-.5-.2-1-.6-1.4-.8-.5-.4-.8-.7-1.3-1.1-.5-.5-1-1.1-1.4-1.7-.4-.6-.7-1.3-1.1-1.9-.7-1.4-1.4-2.4-2.9-3.2-.6-.4-1.3-.7-2-.8-.7-.2-1.5-.4-2.4-.4s-1.5,0-2.4.4c-.7.2-1.4.5-2,.8-1.4.8-2.1,1.9-2.9,3.2-.4.6-.7,1.3-1.1,1.9-.4.6-.8,1.2-1.4,1.7-.4.4-.8.7-1.3,1.1-.5.4-1,.6-1.4.8-.7.4-1.3.6-2,.8s-1.4.4-2.1.5c-1.5.4-2.7.7-3.9,1.8-.6.5-1.1,1.1-1.4,1.7-.5.6-.8,1.3-1.1,2.1-.2.7-.4,1.5-.4,2.3s0,1.4.2,2.1c.4,1.5,1.1,2.6,2.1,3.7.5.6,1.1,1.1,1.4,1.7.5.6.8,1.2,1.2,1.8.2.5.5,1,.6,1.5s.4,1.1.4,1.7c.1.7.1,1.4,0,2.1,0,.7-.1,1.4-.2,2.1-.2,1.5-.2,2.9.5,4.3.2.7.7,1.3,1.1,1.9.5.6,1.1,1.2,1.7,1.7s1.3.8,2,1.1,1.4.4,2.1.5c1.7.1,2.9-.2,4.3-1s1.3-.6,2-1c.7-.2,1.4-.5,2.1-.6.6,0,1.1-.1,1.7-.1s1.1,0,1.7.1c.7,0,1.4.4,2.1.6.7.2,1.3.6,2,1,1.4.7,2.6,1.1,4.3,1,.7,0,1.4-.2,2.1-.5.7-.2,1.4-.6,2-1.1s1.2-1,1.7-1.7c.5-.6.8-1.2,1.1-1.9.6-1.5.6-2.7.5-4.3,0-.7-.2-1.4-.2-2.1s0-1.4.1-2.1c0-.6.2-1.1.4-1.7.1-.5.4-1.1.6-1.5.4-.7.7-1.3,1.2-1.8.5-.6,1-1.1,1.4-1.7,1.1-1.2,1.8-2.1,2.1-3.7.1-.7.2-1.4.2-2.1h.4ZM100,42.9c-7.1,0-12.9-5.7-12.9-12.9s5.7-12.9,12.9-12.9,12.9,5.7,12.9,12.9-5.7,12.9-12.9,12.9Z"/>
    <circle class="st0" cx="100" cy="30" r="11.3"/>
  </g>
</svg>